<svg id="圖層_1" data-name="圖層 1" xmlns="http://www.w3.org/2000/svg" viewBox="0 0 422 422"><defs><style>.cls-1{fill:#fff;}</style></defs><title>about-connect</title><path class="cls-1" d="M211,1C95,1,1,95,1,211S95,421,211,421s210-94,210-210S327,1,211,1Zm0,380A170,170,0,1,1,381,211,170,170,0,0,1,211,381Z"/><path class="cls-1" d="M322.22,282.4c-3.51-4.92-6.81-6.93-12.34-3.24-2.52,1.68-5.52,2.63-8.3,3.92l-.78-1.27,52.55-72H305.86c8.28-4.51,15.38-7.87,21.94-12.09a127.79,127.79,0,0,0,18.7-14.08c15-14.17,13.42-28.35-5.45-36.91C326.3,140,310.29,136,294.65,131.38c-4.88-1.43-7.75-3.19-8.8-8.35a209.11,209.11,0,0,0-6.23-24.91,30.15,30.15,0,0,0-7.67-12.34c-6.72-6.13-15.38-7-24.23-6.08-19.54,2.09-39.09,4.1-58.63,6.22-6.89.75-12.5,3.6-15.91,10.06-2.6,4.9-5.51,9.64-8.27,14.46l-18.69,32.5-1.4-.48v-7.09c-18.17,5.58-35.22,11.61-49.39,23.46C81,170.9,81.1,183.48,95.57,195.5c4.44,3.68,9.56,6.56,14.41,9.72,2.14,1.39,4.41,2.58,6.62,3.87l-.54,1.57H65.37l53.24,73c-7.33,9.06-15.12,17.3-21.28,26.57a170,170,0,0,0,227-24.78C323.61,284.39,322.92,283.37,322.22,282.4ZM232.08,251c-16.21,8.47-35.26,5-48.6-8.9-26.68,12.85-47.36,3.2-50.08-24.25,37.5,9.07,75,15.62,113.39,9.07C248.77,235.87,242.73,245.4,232.08,251Z"/></svg>