<?xml version="1.0" standalone="no"?>
<!DOCTYPE svg PUBLIC "-//W3C//DTD SVG 20010904//EN"
 "http://www.w3.org/TR/2001/REC-SVG-20010904/DTD/svg10.dtd">
<svg version="1.0" xmlns="http://www.w3.org/2000/svg"
 width="700.000000pt" height="700.000000pt" viewBox="0 0 700.000000 700.000000"
 preserveAspectRatio="xMidYMid meet">
<metadata>
Created by potrace 1.11, written by Peter Selinger 2001-2013
</metadata>
<g transform="translate(0.000000,700.000000) scale(0.100000,-0.100000)"
fill="#000000" stroke="none">
<path d="M2519 6933 c-45 -87 -137 -259 -160 -298 -10 -16 -34 -61 -55 -100
-20 -38 -42 -77 -49 -85 -6 -8 -26 -40 -44 -70 -100 -172 -252 -390 -358 -510
-112 -128 -225 -232 -378 -347 -92 -70 -279 -168 -403 -213 -34 -13 -65 -26
-67 -31 -3 -4 39 -39 92 -77 54 -39 107 -79 118 -89 12 -10 50 -43 85 -73 140
-118 222 -199 426 -421 68 -73 251 -306 361 -457 l101 -140 -36 -7 c-21 -4
-46 -9 -57 -10 -35 -6 -229 -37 -250 -40 -54 -7 -118 -17 -195 -30 -108 -18
-156 -25 -200 -31 -19 -2 -46 -6 -60 -9 -14 -2 -38 -7 -55 -9 -16 -3 -86 -14
-154 -25 -68 -11 -125 -22 -128 -24 -2 -3 0 -13 6 -24 6 -10 40 -94 75 -188
36 -93 94 -246 131 -340 36 -93 78 -200 92 -238 l25 -67 -59 -73 c-371 -454
-619 -1018 -719 -1636 -3 -18 -7 -42 -9 -52 -2 -10 -7 -49 -10 -86 -4 -37 -9
-70 -10 -73 -9 -15 -19 -271 -19 -450 1 -211 7 -332 25 -480 5 -47 11 -95 12
-107 l1 -23 2913 0 2913 0 1 23 c0 12 2 30 4 40 4 21 13 123 21 247 13 180 6
583 -11 692 -2 13 -6 52 -9 88 -21 218 -86 506 -169 745 -124 358 -316 694
-555 972 l-61 71 164 486 c142 419 162 486 147 490 -9 3 -39 8 -67 11 -62 7
-101 12 -190 24 -73 11 -122 17 -190 26 -21 2 -75 10 -120 15 -44 6 -95 13
-112 16 -18 2 -48 6 -65 8 -18 3 -55 8 -83 11 -27 3 -61 8 -75 10 -14 3 -47 7
-75 11 -27 3 -52 8 -54 10 -8 8 72 230 111 307 93 186 164 284 327 450 166
170 362 305 659 453 l144 71 -34 16 c-18 8 -109 52 -203 97 -93 45 -215 104
-270 130 -55 26 -183 88 -285 137 -102 49 -200 96 -218 104 -26 11 -42 32 -79
104 -25 50 -60 117 -78 150 -18 33 -67 128 -110 210 -43 83 -98 188 -123 235
-24 47 -80 153 -123 235 -43 83 -96 184 -118 225 l-39 75 -160 3 -160 2 -113
-157 c-62 -87 -116 -159 -121 -161 -4 -2 -8 -8 -8 -14 0 -8 -44 -72 -60 -88
-3 -3 -16 -21 -30 -42 -21 -31 -33 -38 -85 -50 -66 -14 -303 -18 -375 -5 -192
34 -336 116 -388 221 -35 68 -33 177 4 250 8 16 14 33 14 38 0 4 -100 8 -223
8 l-223 0 -35 -67z m2321 -2222 c0 -4 -118 -150 -130 -161 -3 -3 -25 -30 -50
-60 -25 -30 -47 -57 -50 -60 -3 -3 -23 -27 -45 -55 -22 -27 -84 -102 -139
-165 -54 -63 -119 -140 -145 -169 -82 -98 -113 -131 -121 -131 -7 0 -264 189
-330 243 -8 7 -69 52 -135 102 -66 49 -129 97 -139 107 -32 29 26 63 -469
-283 -125 -87 -232 -159 -236 -159 -5 0 -37 30 -71 68 -35 37 -125 132 -200
212 -132 140 -160 170 -320 350 -41 46 -84 93 -95 104 -57 60 -73 57 206 49
522 -14 2349 -6 2366 10 4 4 103 2 103 -2z m-2211 -1881 c64 -74 118 -137 121
-140 3 -3 21 -25 39 -48 19 -24 42 -53 52 -65 21 -24 109 -135 151 -188 14
-19 46 -59 70 -90 l43 -55 390 1 c361 1 425 5 425 25 0 4 10 18 23 32 12 13
40 46 62 72 22 27 94 112 159 190 65 78 136 161 157 186 21 25 93 110 160 190
l122 144 -8 -54 c-4 -30 -9 -66 -11 -80 -2 -14 -12 -81 -23 -150 -11 -69 -22
-143 -26 -165 -3 -22 -8 -53 -11 -70 -3 -16 -16 -93 -29 -170 -13 -77 -31
-178 -40 -225 -8 -47 -18 -101 -21 -120 -3 -19 -7 -42 -9 -50 -3 -8 -7 -33
-10 -55 -8 -52 -196 -994 -229 -1147 -29 -134 -33 -152 -48 -231 -5 -32 -12
-57 -13 -55 -2 2 -35 127 -74 278 -38 151 -109 428 -156 615 -117 456 -115
448 -94 445 31 -5 192 0 187 6 -8 7 -945 18 -938 11 3 -3 40 -7 83 -8 60 -1
77 -5 77 -17 0 -17 -152 -615 -255 -1002 -40 -151 -75 -284 -77 -295 -6 -26
-23 30 -48 157 -8 42 -33 154 -85 388 -12 53 -109 524 -120 580 -8 44 -17 95
-17 97 1 2 -3 17 -8 34 -5 18 -12 51 -15 73 -4 23 -13 73 -20 111 -8 39 -17
84 -19 100 -3 17 -21 122 -40 235 -19 113 -44 268 -55 345 -11 77 -23 160 -27
185 -3 25 -8 56 -9 70 -8 66 -16 129 -20 151 -5 29 59 -37 234 -241z"/>
</g>
</svg>
