<svg id="圖層_1" data-name="圖層 1" xmlns="http://www.w3.org/2000/svg" viewBox="0 0 425.2 425.2"><defs><style>.cls-1,.cls-2{fill:#6cc6d4;stroke:#6cc6d4;stroke-miterlimit:10;}.cls-2{stroke-width:2px;}.cls-3{font-size:72px;fill:#fff;font-family:DFGuYin-W5-WIN-BF, DFGuYinMedium-B5;}</style></defs><title>about-connect</title><path class="cls-1" d="M184.76,51.67c-44.91,11-69.32,37.2-83.82,76.75a14.73,14.73,0,0,0,7.61,18.42l28.94,13.08a13.59,13.59,0,0,0,18.12-7c9.61-21.72,17.48-34.81,39.49-40.21,17.31-4.25,41.54,2,45.81,19.38,3.22,13.13-5.6,22.44-20.25,36.55-17.09,16.45-39.93,37.31-31.1,73.3l1.4,5.7a14.15,14.15,0,0,0,16.93,10.65l40.77-10A14.15,14.15,0,0,0,258.74,231l-.82-3.36c-6.12-24.95,64.1-43.29,47.52-110.79C293,66,232.51,39.94,184.76,51.67Zm47.73,218.76C211,275.7,198,298.08,203.42,320.31s27.38,36,48.87,30.75,34.53-27.65,29.07-49.89S254,265.15,232.49,270.42Z"/><path class="cls-2" d="M212.35,2.9c-116,0-210,94-210,210s94,210,210,210,210-94,210-210S328.33,2.9,212.35,2.9Zm0,380a170,170,0,1,1,170-170A170,170,0,0,1,212.35,382.9Z"/><path class="cls-1" d="M422.29,220.07A210.54,210.54,0,0,0,368.38,71L2.55,203.3A210.54,210.54,0,0,0,56.46,352.38Z"/><text class="cls-3" transform="translate(50.57 291.28) rotate(-19.88)">TOP SECRET</text></svg>