<svg id="圖層_1" data-name="圖層 1" xmlns="http://www.w3.org/2000/svg" viewBox="0 0 425.2 425.2"><defs><style>.cls-1{fill:none;stroke:#6cc6d4;stroke-miterlimit:10;stroke-width:3px;}</style></defs><title>about-connect</title><circle class="cls-1" cx="212.8" cy="212.85" r="210"/><circle class="cls-1" cx="212.8" cy="212.85" r="170"/><path class="cls-1" d="M324,284.24c-3.51-4.92-6.81-6.93-12.34-3.24-2.52,1.68-5.52,2.63-8.3,3.92l-.78-1.27,52.55-72H307.67c8.28-4.51,15.38-7.87,21.94-12.09a127.79,127.79,0,0,0,18.7-14.08c15-14.17,13.42-28.35-5.45-36.91-14.76-6.7-30.77-10.76-46.41-15.34-4.88-1.43-7.75-3.19-8.8-8.35A209.11,209.11,0,0,0,281.42,100a30.15,30.15,0,0,0-7.67-12.34c-6.72-6.13-15.38-7-24.23-6.08-19.54,2.09-39.09,4.1-58.63,6.22-6.89.75-12.5,3.6-15.91,10.06-2.6,4.9-5.51,9.64-8.27,14.46L148,144.77l-1.4-.48V137.2c-18.17,5.58-35.22,11.61-49.39,23.46-14.46,12.09-14.33,24.67.15,36.68,4.44,3.68,9.56,6.56,14.41,9.72,2.14,1.39,4.41,2.58,6.62,3.87l-.54,1.57H67.18l53.24,73c-7.33,9.06-15.12,17.3-21.28,26.57a170,170,0,0,0,227-24.78C325.42,286.24,324.72,285.21,324,284.24Zm-90.15-31.43c-16.21,8.47-35.26,5-48.6-8.9-26.68,12.85-47.36,3.2-50.08-24.25,37.5,9.07,75,15.62,113.39,9.07C250.57,237.72,244.54,247.25,233.88,252.81Z"/></svg>