<svg id="圖層_1" data-name="圖層 1" xmlns="http://www.w3.org/2000/svg" viewBox="0 0 425.2 425.2"><defs><style>.cls-1,.cls-2{fill:none;stroke:#6cc6d4;stroke-miterlimit:10;}.cls-1{stroke-width:3px;}.cls-2{stroke-width:2px;}</style></defs><title>about-connect</title><circle class="cls-1" cx="212.69" cy="212.9" r="210"/><circle class="cls-1" cx="212.69" cy="212.9" r="170"/><path class="cls-1" d="M330.35,175.52c-6-18.29-5.54-35,.84-38.37L313.13,82,54.5,166.71l18.06,55.15C79.7,220.8,90,234,95.94,252.3s5.54,35-.84,38.37l18.06,55.15,258.63-84.7L353.73,206C346.59,207,336.34,193.81,330.35,175.52Zm14.71,57.72L117.43,307.53,80.16,190.65l227.62-74.28Z"/><path class="cls-2" d="M291.72,204.14a1.92,1.92,0,0,1-1-1.07,4.88,4.88,0,0,0-2.38-2.69c-.71-.4-1.47-.73-2.13-1.18a7.81,7.81,0,0,1-1.74-1.52c-.89-1.13-.74-2,.27-3.07,1.43-1.44,2.91-2.84,4.23-4.37a6.58,6.58,0,0,0,1.78-5.9,5.88,5.88,0,0,0-3.72-4.2,17.82,17.82,0,0,0-10.19-1c-1.47.24-2.93.59-4.37,1a.89.89,0,0,1-1.13-.38,12.11,12.11,0,0,0-6.59-5c-5-1.38-9.82-1-14.15,2.23-2.63,2-5.25,3.93-7.8,6a4.36,4.36,0,0,0-1.71,4.28c.5,3.48.8,7,1.26,10.47a1.3,1.3,0,0,1-.56,1.36,35.66,35.66,0,0,0-7.85,8.28,11.11,11.11,0,0,0-1.06,2.09,2.41,2.41,0,0,0,1.72,3.44,13.12,13.12,0,0,0,5.42.36c1.15-.11,2.29-.33,3.44-.49s2.23-.73,3.09.51c.13.19.54.24.84.28a4.13,4.13,0,0,0,4.63-3.74c.05-1.16,0-2.32-.07-3.68a5.87,5.87,0,0,1,1.41.42c2.11,1.29,4,.91,5.84-.62a7.79,7.79,0,0,0,3.08-4.66,14.62,14.62,0,0,1,4.5-7.88c1-1,2-2,3.19-3.16l1.82,5.55.21,0c.14-1.33.29-2.66.43-4,.11-1,.2-2.08.3-3.12a1.15,1.15,0,0,1,1.72-1,4,4,0,0,1,1.49,1.24,6.89,6.89,0,0,1,1.16,5.28,3,3,0,0,1-1.68,2.2A91.28,91.28,0,0,0,261,206.51c-3,2.57-5.95,5.19-8.9,7.81-2.11,1.87-2,3,.47,4.36,1.33.74,2.71,1.42,4.1,2.15-2.11,1.27-4.16,2.42-6.14,3.7A15.56,15.56,0,0,0,246,229a36.47,36.47,0,0,0,28.17,1.93c12.34-4,21.12-13.56,23.79-24.25l-3.73.27A3.32,3.32,0,0,0,291.72,204.14Zm-22.07-14.83a1.76,1.76,0,0,1,.07.31c-3.22,2.18-6.28,4.37-9.46,6.37-2.14,1.34-4.42,2.48-6.17,4.33-1.23,1.3-2.32,2.72-3.59,4a12.77,12.77,0,0,1-2.7,2,2,2,0,0,1-3.21-1.8,4.67,4.67,0,0,1,1.41-3.33,42.5,42.5,0,0,1,11.07-8.94,47.73,47.73,0,0,1,11.1-4.17,8.07,8.07,0,0,1,1-.13C269.35,188.41,269.51,188.86,269.65,189.31Zm-23.54,6c6.06-6.08,13.59-9.79,21.49-12.93A125.15,125.15,0,0,0,246.11,195.35Z"/><path class="cls-2" d="M277.92,248.67l-63.53,20.81a4,4,0,0,0-.81-.21c-2.37-.11-4.74-.13-7.1-.3a125.45,125.45,0,0,1-35.14-8.06,206.48,206.48,0,0,1-41.14-21.44,298.2,298.2,0,0,1-29.5-22.33,5.92,5.92,0,0,0-1-.55L92.33,194l58.13-19c1,2.27,1.93,4.56,3,6.79a71.68,71.68,0,0,0,7.35,12.89c4,5.2,8,10.34,12.36,15.23,9.33,10.52,19.91,19.63,32.42,26.44a80.41,80.41,0,0,0,25.21,8.9,67.44,67.44,0,0,0,29.14-1.31A69.38,69.38,0,0,0,270.08,240a50.65,50.65,0,0,0,10.68-6.28,54.9,54.9,0,0,0,15.91-20.35c.57-1.21,1.07-2.45,1.6-3.68a4.7,4.7,0,0,1,.17,1.66,41.62,41.62,0,0,1-4.35,16,65.5,65.5,0,0,1-15.39,20.38A7.22,7.22,0,0,0,277.92,248.67Z"/><path class="cls-2" d="M194.15,160.61a103.61,103.61,0,0,0,5.5,28.47c4.86,13.57,12.62,25.14,24.48,33.74a59,59,0,0,0,30.05,11.43,54.4,54.4,0,0,0,24.1-3.75c1.16-.44,2.3-.94,3.45-1.41l.16.18c-.8.73-1.56,1.51-2.41,2.2a47.92,47.92,0,0,1-17.22,8.61,70.08,70.08,0,0,1-37.59.22c-12.72-3.28-23.89-9.46-34-17.55a115.26,115.26,0,0,1-19.74-20.06,109.11,109.11,0,0,1-11.06-17.76c-1.85-3.74-3.5-7.58-5.25-11.37Z"/><path class="cls-2" d="M209.17,271.19l-82.68,27.08-24.08-73.51a5.27,5.27,0,0,1,.92.46,324.61,324.61,0,0,0,30.2,21A208.22,208.22,0,0,0,168,263.34c7,2.63,14.05,5,21.5,5.88,6.26.78,12.57,1.17,18.86,1.74A4.7,4.7,0,0,1,209.17,271.19Z"/><path class="cls-2" d="M225.48,150.35c-1.07,3.12-2.29,6.21-3.19,9.37A65.68,65.68,0,0,0,220.57,189a62.26,62.26,0,0,0,5.6,16.66c6,12.56,16.14,20.65,29.05,25.71.2.08.39.16.58.25s0,.1.15.33c-1.12,0-2.17,0-3.21-.1a47.33,47.33,0,0,1-18.61-6,66.7,66.7,0,0,1-23.61-21.95,79.47,79.47,0,0,1-11.94-29.8c-.84-4.51-1.24-9.1-1.83-13.65a4.71,4.71,0,0,1,0-.71Z"/><path class="cls-2" d="M311.73,157.71l-3.58-.94a70.05,70.05,0,0,0-28.63-1.83,66.77,66.77,0,0,0-17.94,5.54c-13.31,6-22,16.13-27.48,29.18-.14.33-.29.65-.43,1l-.24,0c0-1,0-2.08.14-3.11a47.07,47.07,0,0,1,7.05-19.62,68.81,68.81,0,0,1,20.13-21.1A84.8,84.8,0,0,1,289,134.31a97.44,97.44,0,0,1,14.22-2.46Z"/><path class="cls-2" d="M309.77,238.24c.13-.76.23-1.52.4-2.27a65.65,65.65,0,0,0,1.1-23.35,55.45,55.45,0,0,0-4-14.64c-2.67-6.17-5.83-12-10.64-16.86A56.33,56.33,0,0,0,276.36,168l-.67-.27s-.07-.09-.25-.32c1.05,0,2,0,2.86.06a47.71,47.71,0,0,1,20.49,6.84,66.9,66.9,0,0,1,22.15,21.07,80.11,80.11,0,0,1,11.36,26.8c.58,2.5,1,5,1.48,7.55a5.25,5.25,0,0,0,.19.59Z"/><path class="cls-2" d="M302.47,129.46c-4,.62-8,1.14-11.91,1.87a87.64,87.64,0,0,0-18.85,5.82,71.93,71.93,0,0,0-28,20.92,64.32,64.32,0,0,0-9.86,17.61,48.9,48.9,0,0,0-3,23.72,53.57,53.57,0,0,0,4.33,15.73c.13.28.23.57.34.86l-.21.15c-.26-.25-.53-.5-.79-.77a40.31,40.31,0,0,1-8.74-14.76c-4.19-11.8-4.57-23.87-2-36.12a78,78,0,0,1,4.71-14.56c.09-.22.16-.45.24-.68l72.41-23.71Z"/><path class="cls-2" d="M323.65,194.13c-1-1.35-2-2.72-3.06-4.05-7.19-9.22-16.05-16.31-27.2-20.51a57,57,0,0,0-14.1-3.74,56.14,56.14,0,0,0-25.41,3.33c-1.4.51-2.77,1.09-4.43,1.75.35-.42.52-.67.74-.88a38.49,38.49,0,0,1,10.18-6.84,59.91,59.91,0,0,1,15.12-4.85,69,69,0,0,1,17.19-1,76.39,76.39,0,0,1,19.56,3.91c.23.08.47.12.7.18Z"/><path class="cls-2" d="M284,246.68a7.23,7.23,0,0,1,.63-.94,61.15,61.15,0,0,0,12.51-19.68,54.67,54.67,0,0,0,3.9-15,53.64,53.64,0,0,0-3.09-22.7c-.43-1.21-1-2.38-1.44-3.56l-.36-.88.21-.16c.58.6,1.2,1.17,1.75,1.8a39.41,39.41,0,0,1,7.08,11.85c5,12.86,5.48,26.07,2.35,39.52-.17.72-.26,1.45-.39,2.18Z"/></svg>