<svg id="圖層_1" data-name="圖層 1" xmlns="http://www.w3.org/2000/svg" viewBox="0 0 424.08 423"><defs><style>.cls-1,.cls-2,.cls-3{fill:none;stroke:#6cc6d4;stroke-miterlimit:10;}.cls-2{stroke-width:2px;}.cls-3{font-size:72px;font-family:DFGuYin-W5-WIN-BF, DFGuYinMedium-B5;}</style></defs><title>about-connect</title><path class="cls-1" d="M184.2,50.57c-44.91,11-69.32,37.2-83.82,76.75A14.73,14.73,0,0,0,108,145.74l28.94,13.08a13.59,13.59,0,0,0,18.12-7c9.61-21.72,17.48-34.81,39.49-40.21,17.31-4.25,41.54,2,45.81,19.38,3.22,13.13-5.6,22.44-20.25,36.55C203,184,180.17,204.84,189,240.83l1.4,5.7a14.15,14.15,0,0,0,16.93,10.65l40.77-10a14.15,14.15,0,0,0,10.07-17.28l-.82-3.36c-6.12-24.95,64.1-43.29,47.52-110.79C292.4,64.89,232,38.84,184.2,50.57Zm47.73,218.76c-21.49,5.28-34.53,27.65-29.07,49.89s27.38,36,48.87,30.75,34.53-27.65,29.07-49.89S253.42,264,231.93,269.32Z"/><circle class="cls-2" cx="211.79" cy="211.8" r="210"/><circle class="cls-2" cx="211.79" cy="211.8" r="170"/><path class="cls-1" d="M421.74,219A210.54,210.54,0,0,0,367.82,69.9L2,202.2A210.54,210.54,0,0,0,55.91,351.28Z"/><text class="cls-3" transform="translate(50.01 290.19) rotate(-19.88)">TOP SECRET</text></svg>