<svg id="圖層_1" data-name="圖層 1" xmlns="http://www.w3.org/2000/svg" viewBox="0 0 424.08 423"><defs><style>.cls-1,.cls-2{fill:none;stroke:#6cc6d4;stroke-miterlimit:10;}.cls-2{stroke-width:2px;}</style></defs><title>about-connect</title><path class="cls-1" d="M210.38,219.8c1,.21,1.92.39,2.86.64a9.18,9.18,0,0,1,5.8,4.73c2.22,4.13,5.58,6,10.09,6.08a3.73,3.73,0,0,1,.55.19l-9.57,4.15c-1.88-1.89-3.54-3.84-5.48-5.46C209.68,226,204,224,197.5,224.76a15.16,15.16,0,0,0-12.87,10.73,19.81,19.81,0,0,0,.3,12.48c.09.27.19.53.27.79s.18.69.31,1.15l-4.41,1.77c-.58-1.74-1.19-3.33-1.65-5-.8-2.84-1.34-5.76-2.33-8.53-1.17-3.27-3-6.2-6.2-7.94-3.68-2-7.43-.78-9.43,2.9-1.48,2.71-1.86,5.66-2.16,8.65a22,22,0,0,1-5,12.49c-4.59,5.34-10.54,6.87-17.23,5.52-9.39-1.9-15.65-7.89-19.94-16.13a26,26,0,0,1-2.91-15.07,5.55,5.55,0,0,0-2.81-5.75,5.44,5.44,0,0,1-1.74-5.49,1.62,1.62,0,0,1,1.85-1q1.61.14,3.22.34a4.78,4.78,0,0,0,5.3-2.6c.22-.42.51-.81.75-1.23a5.91,5.91,0,0,1,5.19-3.12c-1.77-.71-3.22-1.27-4.65-1.88-5.83-2.47-11.5-5.24-16.24-9.53-4.55-4.11-7.31-9.17-7.18-15.47a22.23,22.23,0,0,1,4-12,43.13,43.13,0,0,1,14.77-13.74,57.23,57.23,0,0,1,16.42-6.12c4.64-1,9.31-1.87,14-2.72,2.12-.38,4.27-.59,6.42-.83.65-.07,1-.24,1-1q1.13-10.18,2.35-20.36c.6-5,1.09-9.93,1.92-14.85s2.28-9.55,5.59-13.43c.2-.24.38-.5.69-.92.42,2,1.69,2.39,3.17,2.47,4,.2,7.77-.89,11.51-2,6.23-1.85,12.36-4,18.62-5.76a101.76,101.76,0,0,1,11.75-2.24c13.1-2,26.29-2,39.49-1.64,3.31.1,6.63.27,9.92.65a53.86,53.86,0,0,1,5.91,1.4q3.09.72,6.19,1.36A12.82,12.82,0,0,1,280.72,98a39.68,39.68,0,0,1,3.42,10.3c.5,2.13,1.28,4.19,1.71,6.32.93,4.57,2,9.14,2.49,13.77.67,6.14.8,12.35,1.3,18.51a4.85,4.85,0,0,1-1.7,4.08c-3.89,3.92-8.67,6.32-13.8,8.13-2.41.85-4.82,1.69-7.24,2.48-1.36.44-2.75.79-4.14,1.14-.89.22-1.34.72-1.1,1.64s1,.82,1.65.62c2.36-.72,4.74-1.42,7.07-2.22a53.6,53.6,0,0,0,12.5-6,20.1,20.1,0,0,0,6.7-6.72,1.5,1.5,0,0,1,1.16-.48,61.9,61.9,0,0,1,14.05,2.18,104.12,104.12,0,0,1,20.49,8c3.91,2,7.75,4.1,11.45,6.44,2.7,1.7,5.07,3.87,6.15,7.09a7.29,7.29,0,0,1-.63,6.22,20.56,20.56,0,0,1-7.25,7.17c-4.92,3-9.93,5.93-15,8.61-2,1.05-4.43,1.28-6.6,2.07-8.33,3-16.66,6-24.93,9.15-5.48,2.09-10.82,4.53-16.3,6.62a39.54,39.54,0,0,1-6.39,1.5,270,270,0,0,1-27.5,3.88c-8.85.84-17.72,1-26.59,1.08h-1.26Zm-78-3.52c-4.74.06-8.87,2.35-11.59,7.11a17.27,17.27,0,0,0-1.23,14.37c3,9.06,8.76,15.31,18.61,16.8a13,13,0,0,0,12.53-4.68c4.55-5.46,4.59-11.72,2.39-18.1a23.69,23.69,0,0,0-6.92-10.16A19.9,19.9,0,0,0,132.33,216.28ZM262.28,180a32.07,32.07,0,0,0-1.63-12.27c-1-3.29-1.3-3.29-4.68-2.51-4,.92-8,1.73-12.06,2.55-1.18.24-1.69.85-1.37,2a55.84,55.84,0,0,1,2,17.78c-.06,1.26.45,1.63,1.71,1.32,1.74-.42,3.48-.87,5.23-1.27,3.27-.75,6.53-1.49,9.81-2.18a1.11,1.11,0,0,0,1-1.24C262.28,182.83,262.28,181.44,262.28,180ZM152.23,163.48l-.38-.16a44.65,44.65,0,0,0-2.76,4.41,10.22,10.22,0,0,0-.4,8.46,11.28,11.28,0,0,0,5.16,5.48A55.57,55.57,0,0,0,172,188.18c6.3,1.17,12.67,2.09,19,2.77,6.07.64,12.19,1,18.3,1.13,7,.13,14.06-.07,21.09-.29,3.55-.11,7.08-.57,10.62-.95.71-.07,1.81,0,1.62-1.25s-1.15-.86-1.91-.79c-1.23.12-2.46.35-3.69.43-4.9.3-9.81.74-14.72.77-6.91,0-13.84,0-20.73-.43a140,140,0,0,1-15.9-2,130.55,130.55,0,0,1-15-3.5,109.07,109.07,0,0,1-14.41-5.45c-4.21-2-5.92-4.51-4.9-9.33C151.81,167.37,152,165.41,152.23,163.48Zm1.64-11.15-.41.13a15,15,0,0,0,.39,2.52c1.27,3.87,4.38,5.85,7.94,7a138.92,138.92,0,0,0,24.64,5.9c7.07,1,14.17,2,21.29,2.47s14.38.33,21.58.25c3.34,0,6.68-.55,10-.91a1.43,1.43,0,0,0,1-.75,1.36,1.36,0,0,0-.39-1.22,2.26,2.26,0,0,0-1.36-.08c-4,.43-8,1.15-12,1.29a181.41,181.41,0,0,1-34.52-2.2c-4.37-.69-8.72-1.54-13.06-2.44-3.47-.72-6.94-1.5-10.35-2.46a61.59,61.59,0,0,1-8.22-2.88A12.39,12.39,0,0,1,153.86,152.33Zm73.61-57.57,0-.37c-3-.4-6-1-9.09-1.17a44.89,44.89,0,0,0-25.68,6.22c-4.52,2.72-8.3,6.2-10.56,11.09a14.68,14.68,0,0,0-.24,12.52,18.42,18.42,0,0,0,7.23,8.1,24.87,24.87,0,0,0,7.23,3.38c-2-1.31-4.58-2.75-6.86-4.57a15.12,15.12,0,0,1-4.4-18.54c2.08-4.66,5.65-8,9.87-10.65a44.73,44.73,0,0,1,26.41-6.6C223.44,94.27,225.45,94.56,227.47,94.76ZM187.56,218.83c-12.75-.81-25.57-1.45-38.49-3.56,1.06,1.81,1.92,3.42,2.93,4.94a2.7,2.7,0,0,0,3.32.93,23.73,23.73,0,0,1,2.59-1.24,7.78,7.78,0,0,1,3-.53c3.9.36,7.78.86,11.66,1.34,1.8.22,3.66.2,5.18,1.54a27.41,27.41,0,0,0,3,2.11,2.51,2.51,0,0,0,3.87-.79C185.59,222,186.54,220.48,187.56,218.83Zm104.11-56.62c0,.46,0,.7,0,.94a10,10,0,0,1-3.3,9.19,30.15,30.15,0,0,1-6.81,4.57c-5.28,2.43-10.73,4.49-16.11,6.68-.72.29-1.4.6-1.15,1.51s1,.86,1.76.62c1.33-.43,2.7-.76,4-1.29,4.82-2,9.64-4,14.39-6.18A39,39,0,0,0,294.58,172c1.91-1.72,2.54-4.15,1.46-5.88A13.24,13.24,0,0,0,291.67,162.21Z"/><path class="cls-1" d="M152.13,267c1.72-.54,3.12-1,4.5-1.43,6.78-2.35,13.62-4.56,20.33-7.11,8.87-3.36,17.67-6.92,26.45-10.52,7.2-2.95,14.32-6.06,21.47-9.13,8.5-3.65,17-7.34,25.48-11,10.89-4.66,21.78-9.32,32.71-13.89,5.81-2.43,11.63-4.86,17.56-7,7.05-2.51,14.19-4.81,21.37-6.94a57.71,57.71,0,0,1,14.63-2.36c4.68-.15,9.28.34,13.21,3.32.32.24.61.52.93.76.54.4.58.8.27,1.42a173.12,173.12,0,0,0-8.42,21.61c-1.63,4.84-3.2,9.7-4.84,14.53-2,6-4,12-6.24,18-1.57,4.13-3.53,8.12-5.4,12.13a3,3,0,0,1-1.51,1.31c-3.79,1.46-7.67,2.71-11.42,4.27-4.64,1.93-9.29,3.88-13.73,6.21q-9.86,5.15-19.42,10.86c-6,3.6-11.91,7.44-17.77,11.31-6.52,4.3-13,8.72-19.41,13.14q-11.35,7.79-22.62,15.67c-5.69,4-11.32,8-17,12.06-.35.25-.72.48-1.38.92Z"/><path class="cls-1" d="M155.58,286.88l-33,23.25L73,232.22l32.49-11.49a9.35,9.35,0,0,0,.87,2.42,21,21,0,0,0,2.86,3.27,2.08,2.08,0,0,1,.87,1.92,30.58,30.58,0,0,0,2.84,16.2,35.62,35.62,0,0,0,11.76,14.39,28.67,28.67,0,0,0,15.9,5.61,1.93,1.93,0,0,1,1.8,1q4.64,7.54,9.33,15.05Z"/><path class="cls-1" d="M251.53,85.42c-2.47,0-4.94,0-7.42,0-6.19.09-12.4,0-18.58.37a128.82,128.82,0,0,0-26.37,3.91c-3.85,1-7.6,2.42-11.41,3.57-5,1.5-10,3.24-15.23,3.52a17.68,17.68,0,0,1-3.68-.28c-.43-.07-.8-.56-1.2-.86a5.39,5.39,0,0,1,.78-1A71.91,71.91,0,0,1,210,78.34a84.39,84.39,0,0,1,19.23,1A116.74,116.74,0,0,1,247.84,84l3.73,1.23Z"/><path class="cls-1" d="M193,246.92c-1.49.59-2.72,1-3.92,1.58-.83.37-1.23.06-1.56-.68-1.78-3.93-1.43-7.82.2-11.69a6.28,6.28,0,0,1,.74-1.3C188.81,239.28,188.75,243.85,193,246.92Z"/><path class="cls-1" d="M147.86,238.64a8.6,8.6,0,0,1-1.44,6.91c-2.65,4.11-7.46,5.42-12.36,3.3-6.89-3-10.64-8.35-11.72-15.7a10.21,10.21,0,0,1,0-1.46l.31-.08a3.43,3.43,0,0,1,.45.72,19,19,0,0,0,7.75,10.32c3.58,2.38,7.46,3.43,11.69,1.79a8.91,8.91,0,0,0,4.68-4.73c.19-.38.44-.72.66-1.09Z"/><path class="cls-1" d="M147.86,238.64v-1.06l.27,0-.27,1Z"/><circle class="cls-2" cx="212.1" cy="211.67" r="210"/><circle class="cls-2" cx="212.1" cy="211.67" r="170"/></svg>