<svg id="圖層_1" data-name="圖層 1" xmlns="http://www.w3.org/2000/svg" viewBox="0 0 424.08 423"><defs><style>.cls-1,.cls-2{fill:#6cc6d4;stroke:#6cc6d4;stroke-miterlimit:10;}.cls-1{stroke-width:2px;}</style></defs><title>about-connect</title><path class="cls-1" d="M212.14,1.81c-116,0-210,94-210,210s94,210,210,210,210-94,210-210S328.12,1.81,212.14,1.81Zm0,380a170,170,0,1,1,170-170A170,170,0,0,1,212.14,381.81Z"/><path class="cls-2" d="M322.13,175.78c-5.56-17-5.08-32.48.92-35.62L306.3,89,63.58,168.51l16.75,51.14c6.7-1,16.26,11.22,21.81,28.18s5.08,32.48-.92,35.62L118,334.6,360.69,255.1,343.94,204C337.25,205,327.68,192.74,322.13,175.78Zm13.6,53.54L122.86,299,88.55,194.29l212.87-69.72Z"/><path class="cls-2" d="M291.75,202.73a2,2,0,0,1-1-1.12,5.16,5.16,0,0,0-2.46-2.82c-.73-.42-1.51-.77-2.19-1.25a8.21,8.21,0,0,1-1.79-1.6,2.12,2.12,0,0,1,.25-3.2c1.45-1.5,3-2.94,4.31-4.53a6.88,6.88,0,0,0,1.79-6.14,6.21,6.21,0,0,0-3.84-4.4,18,18,0,0,0-10.45-1.08c-1.51.24-3,.6-4.47,1a.91.91,0,0,1-1.16-.4c-1.74-2.43-3.8-4.45-6.78-5.3-5.17-1.47-10.06-1.1-14.48,2.22-2.68,2-5.35,4.07-8,6.19a4.54,4.54,0,0,0-1.72,4.45c.54,3.63.87,7.3,1.36,10.94a1.35,1.35,0,0,1-.57,1.41,36.21,36.21,0,0,0-8,8.59,11.5,11.5,0,0,0-1.07,2.17,2.55,2.55,0,0,0,1.78,3.6,13.25,13.25,0,0,0,5.55.41c1.18-.11,2.34-.33,3.52-.49s2.28-.74,3.17.55c.14.2.56.26.86.3a4.18,4.18,0,0,0,4.72-3.87c0-1.21-.05-2.42-.09-3.84a6,6,0,0,1,1.45.45c2.17,1.36,4.08,1,6-.61a8,8,0,0,0,3.12-4.84,15.07,15.07,0,0,1,4.55-8.19c1-1,2.05-2.07,3.25-3.28l1.9,5.81.22,0c.14-1.39.28-2.78.41-4.17.1-1.08.19-2.17.28-3.26a1.16,1.16,0,0,1,1.76-1.06,4.19,4.19,0,0,1,1.54,1.3,7.35,7.35,0,0,1,1.23,5.52,3.1,3.1,0,0,1-1.71,2.28A91.79,91.79,0,0,0,260.3,205c-3.05,2.66-6.06,5.37-9.06,8.08-2.15,1.93-2,3.11.51,4.55,1.37.78,2.78,1.5,4.22,2.27-2.15,1.31-4.25,2.5-6.26,3.82a15.76,15.76,0,0,0-4.61,4.62,36.86,36.86,0,0,0,28.88,2.2c12.62-4.13,21.54-14,24.21-25.14l-3.82.25A3.5,3.5,0,0,0,291.75,202.73ZM269,187.1a1.88,1.88,0,0,1,.07.32c-3.28,2.25-6.4,4.52-9.65,6.58-2.18,1.39-4.51,2.55-6.29,4.47-1.25,1.35-2.36,2.82-3.65,4.13a12.86,12.86,0,0,1-2.75,2.05,2.11,2.11,0,0,1-3.3-1.9,4.85,4.85,0,0,1,1.42-3.46A42.86,42.86,0,0,1,256.16,190a47.71,47.71,0,0,1,11.34-4.27,8.09,8.09,0,0,1,1.06-.13C268.73,186.16,268.89,186.63,269,187.1ZM245,193.25c6.17-6.3,13.86-10.12,21.92-13.35A125.53,125.53,0,0,0,245,193.25Z"/><path class="cls-2" d="M277.92,249.1,213,270.38a4,4,0,0,0-.84-.23c-2.43-.13-4.86-.17-7.28-.36a127.72,127.72,0,0,1-36.06-8.65,213.74,213.74,0,0,1-42.29-22.65A312.1,312.1,0,0,1,96.13,215a6.15,6.15,0,0,0-1-.58l-7.75-23.67,59.43-19.46c1,2.37,2,4.77,3.11,7.11a76.46,76.46,0,0,0,7.62,13.5c4.1,5.45,8.29,10.85,12.77,16,9.63,11,20.53,20.63,33.4,27.81a82.45,82.45,0,0,0,25.89,9.46,67.77,67.77,0,0,0,29.84-1.17,69.36,69.36,0,0,0,10.38-4,50.79,50.79,0,0,0,10.9-6.48,56.07,56.07,0,0,0,16.16-21.12c.57-1.26,1.08-2.55,1.61-3.83a5,5,0,0,1,.19,1.74,43.62,43.62,0,0,1-4.34,16.63,67,67,0,0,1-15.63,21.16A7.37,7.37,0,0,0,277.92,249.1Z"/><path class="cls-2" d="M191.48,156.64a110.68,110.68,0,0,0,5.83,29.74c5.08,14.19,13.1,26.31,25.31,35.38a60.58,60.58,0,0,0,30.87,12.13,54.5,54.5,0,0,0,24.66-3.75c1.19-.45,2.35-1,3.53-1.45l.17.18c-.81.76-1.59,1.57-2.45,2.27A48,48,0,0,1,261.82,240c-12.84,3.7-25.69,3.41-38.51,0-13.06-3.51-24.54-10-34.94-18.55A121.66,121.66,0,0,1,168,200.37a116.25,116.25,0,0,1-11.46-18.61c-1.92-3.92-3.64-7.93-5.45-11.9Z"/><path class="cls-2" d="M207.63,272.12l-84.52,27.68L97.94,222.94a5.45,5.45,0,0,1,.94.49A338.85,338.85,0,0,0,130,245.5a215.27,215.27,0,0,0,35.41,18.14c7.16,2.8,14.43,5.27,22.07,6.29,6.42.85,12.89,1.31,19.33,1.95A4.8,4.8,0,0,1,207.63,272.12Z"/><path class="cls-2" d="M223.51,146.15c-1.08,3.25-2.3,6.46-3.21,9.76a69.6,69.6,0,0,0-1.55,30.58,66.58,66.58,0,0,0,5.85,17.42c6.27,13.15,16.68,21.66,29.95,27,.2.08.4.17.59.26,0,0,.05.1.16.35-1.15,0-2.23,0-3.29-.13A48.45,48.45,0,0,1,232.9,225a70.21,70.21,0,0,1-24.35-23.06,84.94,84.94,0,0,1-12.44-31.17c-.89-4.71-1.33-9.5-2-14.26a5,5,0,0,1,0-.74Z"/><path class="cls-2" d="M311.93,154.43l-3.67-1a70.71,70.71,0,0,0-29.35-2.1A66.75,66.75,0,0,0,260.56,157c-13.59,6.18-22.42,16.67-28,30.26-.14.34-.29.68-.44,1l-.25,0c0-1.08,0-2.17.12-3.25a49.08,49.08,0,0,1,7.09-20.42,69.87,69.87,0,0,1,20.48-21.88,84.84,84.84,0,0,1,28.9-12.81,97.53,97.53,0,0,1,14.55-2.47Z"/><path class="cls-2" d="M310.48,238.44c.13-.79.23-1.59.39-2.37a69.61,69.61,0,0,0,1-24.36,59.29,59.29,0,0,0-4.16-15.31c-2.77-6.46-6.05-12.58-11-17.67a58.67,58.67,0,0,0-20.9-13.84l-.69-.28s-.07-.09-.26-.33c1.08,0,2,0,2.93.09,7.63.64,14.54,3.4,21,7.28a70.46,70.46,0,0,1,22.84,22.14,85.61,85.61,0,0,1,11.82,28c.61,2.61,1,5.26,1.57,7.89a5.62,5.62,0,0,0,.2.62Z"/><path class="cls-2" d="M302.26,124.89c-4.07.62-8.15,1.13-12.19,1.87a87.61,87.61,0,0,0-19.27,5.94,72.44,72.44,0,0,0-28.54,21.64,66.34,66.34,0,0,0-10,18.31,51.65,51.65,0,0,0-2.9,24.73,57.28,57.28,0,0,0,4.54,16.45c.13.29.24.6.36.9l-.21.15c-.27-.27-.55-.53-.81-.8a43,43,0,0,1-9.06-15.47c-4.38-12.34-4.85-24.94-2.26-37.7a81.49,81.49,0,0,1,4.72-15.16c.09-.23.16-.47.24-.7l74-24.24Z"/><path class="cls-2" d="M324.4,192.51c-1.05-1.42-2.09-2.85-3.16-4.25-7.43-9.67-16.56-17.13-28-21.58a58.14,58.14,0,0,0-14.47-4,56.27,56.27,0,0,0-26,3.3c-1.43.52-2.83,1.12-4.53,1.8.36-.44.53-.7.75-.91a38.68,38.68,0,0,1,10.39-7.07,59.89,59.89,0,0,1,15.46-5,69.25,69.25,0,0,1,17.6-.9,77.64,77.64,0,0,1,20.07,4.22c.23.08.48.13.72.19Z"/><path class="cls-2" d="M284.15,247.06a7.42,7.42,0,0,1,.64-1,62.84,62.84,0,0,0,12.68-20.45A52.67,52.67,0,0,0,298,186.3c-.45-1.26-1-2.49-1.5-3.73l-.37-.92.21-.16c.6.63,1.23,1.23,1.8,1.89a42,42,0,0,1,7.34,12.42c5.26,13.46,5.8,27.24,2.68,41.25-.17.75-.26,1.51-.39,2.27Z"/></svg>