<svg id="圖層_1" data-name="圖層 1" xmlns="http://www.w3.org/2000/svg" viewBox="0 0 424.08 423"><defs><style>.cls-1,.cls-2{fill:#6cc6d4;stroke:#6cc6d4;stroke-miterlimit:10;}.cls-1{stroke-width:2px;}</style></defs><title>about-connect</title><path class="cls-1" d="M212.25,1.27c-116,0-210,94-210,210s94,210,210,210,210-94,210-210S328.23,1.27,212.25,1.27Zm0,380a170,170,0,1,1,170-170A170,170,0,0,1,212.25,381.27Z"/><path class="cls-2" d="M323.47,282.67c-3.51-4.92-6.81-6.93-12.34-3.24-2.52,1.68-5.52,2.63-8.3,3.92l-.78-1.27,52.55-72H307.11c8.28-4.51,15.38-7.87,21.94-12.09a127.79,127.79,0,0,0,18.7-14.08c15-14.17,13.42-28.35-5.45-36.91-14.76-6.7-30.77-10.76-46.41-15.34-4.88-1.43-7.75-3.19-8.8-8.35a209.11,209.11,0,0,0-6.23-24.91A30.15,30.15,0,0,0,273.2,86C266.47,79.91,257.82,79,249,80c-19.54,2.09-39.09,4.1-58.63,6.22-6.89.75-12.5,3.6-15.91,10.06-2.6,4.9-5.51,9.64-8.27,14.46l-18.69,32.5-1.4-.48v-7.09c-18.17,5.58-35.22,11.61-49.39,23.46-14.46,12.09-14.33,24.67.15,36.68,4.44,3.68,9.56,6.56,14.41,9.72,2.14,1.39,4.41,2.58,6.62,3.87l-.54,1.57H66.62l53.24,73c-7.33,9.06-15.12,17.3-21.28,26.57a170,170,0,0,0,227-24.78C324.86,284.66,324.16,283.64,323.47,282.67Zm-90.15-31.43c-16.21,8.47-35.26,5-48.6-8.9-26.68,12.85-47.36,3.2-50.08-24.25,37.5,9.07,75,15.62,113.39,9.07C250,236.14,244,245.67,233.32,251.24Z"/></svg>