<svg id="圖層_1" data-name="圖層 1" xmlns="http://www.w3.org/2000/svg" viewBox="0 0 421.12 421"><defs><style>.cls-1{fill:#fff;}</style></defs><title>about-connect</title><path class="cls-1" d="M408.06,137.86A209.37,209.37,0,0,0,366.53,68.6l-.93.34A209.45,209.45,0,0,0,210.5.5C97.74.5,5.75,89.38.73,200.9h0c0,.87,0,1.73-.07,2.6-.08,2.32-.13,4.65-.13,7,0,116,94,210,210,210,113.57,0,206.07-90.16,209.86-202.8l.08,0A209.36,209.36,0,0,0,408.06,137.86Zm-66.72-5.58a8.29,8.29,0,0,1,4.75-.52q.25.28,1.52.27c.28-.05.53-.32.76-.8l.38-.81a4.67,4.67,0,0,1,2.42-1.77q2.58-.93,7.75-3t7.69-2.93q3.37-1.22,4.19,1t-2.38,3.55q-1.25.45-3.71,1.12t-3.64,1.09a2.49,2.49,0,0,0-1.89,2.63,45.18,45.18,0,0,0,2.23,7.42q1.27,3.73,2.66,7.56l3,8.93a12.43,12.43,0,0,1,.72,4.07,13,13,0,0,1-.08,2l1.44,1.28a11,11,0,0,1,1.62,2.41q1.83,4.43,2.49,6.28,1.41,3.9-1,4.79t-3.82-3.11a26.37,26.37,0,0,1-1.64-7,13.85,13.85,0,0,1,0-2,4.34,4.34,0,0,0,0-1.71,11.46,11.46,0,0,0-1.6-2.56,11.45,11.45,0,0,1-1.65-2.69q-1.32-3.64-4.28-10.79t-4.17-10.9q-1.32-3.64-3.75-3.13a6.63,6.63,0,0,1-2.46.22,3.89,3.89,0,0,0-1.65,0,3.84,3.84,0,0,0-.49.7,3.71,3.71,0,0,1-.49.7,8,8,0,0,1-2.86,2q-3.57,1.29-4.31-.76Q338.16,133.43,341.34,132.29ZM326.4,139a4.2,4.2,0,0,1,2.11-1.81q4.17-1.51,5.15,1.2.86,2.38-2,3.43a8.07,8.07,0,0,1-3.3.37l-1.5-.43a2.89,2.89,0,0,0-1.63-.38s-.45.49-1.21,1.41a6.16,6.16,0,0,1-2.2,1.77l-2.84,1c-.35.13-.87.34-1.56.64l-1,.36q-2.58.93-1.57,4.75a6.14,6.14,0,0,1,.08,2.29,4.67,4.67,0,0,0,.08,2.29,7.55,7.55,0,0,0,1.32,2,8.1,8.1,0,0,1,1.46,2.17q1.29,3.57,4,3.41a6.28,6.28,0,0,1,1.86.38,5.07,5.07,0,0,0,1.74.27,2.36,2.36,0,0,0,.93-.94q.82-1,.93-1.16,1.15-1.16,5.38-2.69,4.63-1.67,5.49.71t-3,3.92a21.64,21.64,0,0,1-6,1.11,36.72,36.72,0,0,0-3.92.52,3.24,3.24,0,0,0-1,1.12,4,4,0,0,1-1.13,1.23q-1.33.86.1,4.82.48,1.32,1.35,4.15t1.44,4.19q2.08,5.75,4.92,4.72,1.32-.48,4.24-1.31l2.85-.81q1.19-.43,4.19.43,2.21-3.19,3.47-3.65,3.31-1.2,4,.79,1,2.64-2.48,3.89a8.84,8.84,0,0,1-3.46.35q-2-.17-1.94-.2-.13,0-1.94,1.67a9.68,9.68,0,0,1-3.1,2.17,62.47,62.47,0,0,1-7,2.09q-4.38,1.13-6.53-4.82-1.34-3.7-4.17-11.13t-4.17-11.13a17.48,17.48,0,0,1-1.41-6.37,5.8,5.8,0,0,0,.18-1.78,2.4,2.4,0,0,0-.78-.92,10,10,0,0,1-.82-.6,11.07,11.07,0,0,1-2-3.53q-2.32-6.41,1.58-7.83c.44-.16,1.13-.38,2.07-.67s1.66-.45,2.1-.61a59.64,59.64,0,0,1,6.69-1.75,9,9,0,0,1,3.12.14A10.41,10.41,0,0,1,326.4,139Zm-37.08,50q.74,2,2.44,5.92t2.37,5.95q1.43,4-1.08,4.88t-3.91-3.15q-.72-2-2.07-6.13T285,190.34l-5.69-15.74a5.29,5.29,0,0,1-.24-2.31,4.66,4.66,0,0,0,.06-1.89,2,2,0,0,0-.73-.78,5,5,0,0,1-.84-.67,18.23,18.23,0,0,1-2.28-4.64q-2.63-7.27,2.26-9a11.73,11.73,0,0,1,3.89-.81c.17,0,.62.13,1.36.25a3.28,3.28,0,0,0,1.32.12,8.48,8.48,0,0,1,1.19-1.47,6.89,6.89,0,0,1,3.1-2.17q10.71-3.87,15.66,9.81,3.83,10.58-1.32,15.36a2,2,0,0,0-.33,2.81,38.4,38.4,0,0,0,2.5,3,13.87,13.87,0,0,1,1.77,2.2,6.06,6.06,0,0,0,.69,2.52,2.84,2.84,0,0,0,1.36,0A7.83,7.83,0,0,1,311,188q2.25,1.88,4.28,3.76a7.54,7.54,0,0,1,1.86,2.47,2.42,2.42,0,0,1-1.65,3.51q-1.26.45-3.15-1.25l-2.52-2.83a16.68,16.68,0,0,1-2.72-3.8l-.65-1.79q-.18-.31-1.69-.74A7.68,7.68,0,0,1,302.5,186q-1.21-1.28-4.51-4.2a4.47,4.47,0,0,0-4.68-1.15,13.2,13.2,0,0,0-4.24,2.13Q287.63,184.31,289.32,189Zm-13.19,21.22q-.86,2-4.7,3.34-8.2,3-15.62-4.74a42.49,42.49,0,0,1-9-15.21A28,28,0,0,1,245,186a3.3,3.3,0,0,1,.6-1.86,3.38,3.38,0,0,0,.5-1.3,4.1,4.1,0,0,0-.53-1.45,9.81,9.81,0,0,1-.87-2,13.12,13.12,0,0,1,1-9.7,12.51,12.51,0,0,1,7-6.65,12.28,12.28,0,0,1,5.68-.63,5,5,0,0,1,3,1.37q.37.61,1,1.44a12,12,0,0,1,3.37.43,10.77,10.77,0,0,1,2.63,2.11,9,9,0,0,1,1.91,2.6q1.05,2.91-1.06,3.67-1.12.41-3.16-1.7-.53-.63-2-2.33a3.65,3.65,0,0,1-1.09-2c-.14-.95-.34-1.5-.6-1.65s-.6.12-1.46.53a8.46,8.46,0,0,1-3-.35,6.08,6.08,0,0,0-3.58.25q-2.91,1.05-4.57,5.54a23.25,23.25,0,0,0-1.35,7.44,6.8,6.8,0,0,1-.6,1.86,2.67,2.67,0,0,0-.39,2,6.72,6.72,0,0,0,1,1.58,3.64,3.64,0,0,1,1,1.89,38.28,38.28,0,0,0,1.52,4.83,37.7,37.7,0,0,0,6.85,12.1q6.58,7.64,12.53,5.49a8.75,8.75,0,0,0,1.27-.61,9.72,9.72,0,0,1,1.21-.59q.13,0,1.26-.23c.74,0,1.13-.11,1.17-.27a3.29,3.29,0,0,0-.14-1.82,4.58,4.58,0,0,1,.21-2.32q.36-2.52.67-5,.64-3.6,1.63-4,2-.72,3.06,2.26.93,2.58-.49,6.91a5.7,5.7,0,0,1-2.07,2.77,6.66,6.66,0,0,0-1.55,1.08A7.66,7.66,0,0,1,276.14,210.23ZM207,221.47a13.22,13.22,0,0,0-4.85-6.17,11.82,11.82,0,0,0-1.67-1.94,1.54,1.54,0,0,0-.93.11,6.31,6.31,0,0,0-.83.38,9.4,9.4,0,0,1-4.34.6A32.67,32.67,0,0,1,190,214a29.22,29.22,0,0,1-4.32-1q-6.91-2.36-8.85-7.72a15,15,0,0,1-.16-10.56,11.51,11.51,0,0,1,7.41-6.79,4.8,4.8,0,0,1,4.75.52,4.55,4.55,0,0,0,1.5,1.25,1.69,1.69,0,0,0,1-.42,2.41,2.41,0,0,1,1-.58q1.9-.31,5.84,2.08a3.68,3.68,0,0,1,1.4,1.81,2.21,2.21,0,0,1-1.45,3.22q-.86.31-3.32-1.12a7.59,7.59,0,0,1-2.88-2.4,1.9,1.9,0,0,0-1.69-1,1.67,1.67,0,0,0-.7.33,5.51,5.51,0,0,1-.68.4,9,9,0,0,1-1.51-.05,4.56,4.56,0,0,0-2.13.1,6.83,6.83,0,0,0-4.42,4.74,10.76,10.76,0,0,0,.39,6.66q1.41,3.9,6,4.85,2.48.45,8.92,1.71a26.8,26.8,0,0,1,4,2,13.31,13.31,0,0,1,3.46-.35,7.69,7.69,0,0,1,4.84,3,16.11,16.11,0,0,1,3,5.13,14.46,14.46,0,0,1-.84,12.34,12.44,12.44,0,0,1-6.9,5.93q-3.9,1.41-5.74-.17-.48-1.32-1.18-1a5.1,5.1,0,0,1-4.76.08q-6-2.63-7-5.41-.88-2.44,1.5-3.31.93-.33,3.17,1.32,3.76,2.75,5.09,3.54a18.52,18.52,0,0,1,1.33,1.39q1.16,1.15,1.43,1.05a3.29,3.29,0,0,0,.87-.69,3.17,3.17,0,0,1,.9-.62,13,13,0,0,1,1.57-.42,13.09,13.09,0,0,0,1.57-.42,7.49,7.49,0,0,0,4.59-5.1A10.34,10.34,0,0,0,207,221.47Zm-50.55-76.9c8.53-18.19,16.87-29.38,36.8-34.27,12.38-3,28.31-.69,37.93,7.25Zm55.38,50a5.82,5.82,0,0,0,.18-1.78,2.4,2.4,0,0,0-.78-.92q-.7-.49-.82-.6a11.08,11.08,0,0,1-2-3.53q-2.32-6.41,1.58-7.83.66-.24,2.07-.67t2.1-.61a59.8,59.8,0,0,1,6.69-1.75A9,9,0,0,1,224,177a10.41,10.41,0,0,1,.88-1.29,4.2,4.2,0,0,1,2.11-1.81q4.17-1.51,5.15,1.2.86,2.38-2,3.43a8.09,8.09,0,0,1-3.31.37l-1.5-.43a2.89,2.89,0,0,0-1.63-.38s-.45.49-1.21,1.41a6.15,6.15,0,0,1-2.2,1.77l-2.84,1q-.53.19-1.56.64l-1,.36q-2.58.93-1.57,4.75a6.11,6.11,0,0,1,.08,2.29,4.69,4.69,0,0,0,.08,2.29,7.55,7.55,0,0,0,1.32,2,8.09,8.09,0,0,1,1.46,2.17q1.29,3.57,4,3.41a6.31,6.31,0,0,1,1.86.38,5.07,5.07,0,0,0,1.74.27,2.37,2.37,0,0,0,.93-.94q.82-1,.93-1.16,1.15-1.16,5.38-2.69,4.63-1.67,5.49.71t-3,3.92a21.69,21.69,0,0,1-6,1.11,36.68,36.68,0,0,0-3.92.52,3.23,3.23,0,0,0-1,1.12,4,4,0,0,1-1.13,1.23q-1.33.86.1,4.82.48,1.32,1.35,4.15t1.44,4.19q2.08,5.75,4.92,4.72,1.32-.48,4.24-1.31l2.85-.81q1.19-.43,4.19.43,2.21-3.19,3.47-3.65,3.31-1.2,4,.79,1,2.64-2.48,3.89a8.84,8.84,0,0,1-3.46.35c-1.34-.11-2-.18-1.94-.2s-.73.59-1.94,1.67a9.7,9.7,0,0,1-3.1,2.17,62.69,62.69,0,0,1-7,2.09q-4.38,1.13-6.53-4.82-1.34-3.7-4.17-11.13t-4.17-11.13A17.47,17.47,0,0,1,211.84,194.53Zm-1.34-154A169.36,169.36,0,0,1,324,84l-28.5,10.31c-21.36-37.33-71.65-55.07-112.61-45C138,60.29,113.6,86.47,99.1,126a14.73,14.73,0,0,0,7.61,18.42L129,154.51l-86.7,31.36A170,170,0,0,1,210.5,40.5ZM118.78,245.68a17.58,17.58,0,0,0,1,3.31q.55,1.52,2.52,6.56l2.31,6q1.53,4.23-.78,5.29T120.12,264q-.86-2.38-2.43-7.12t-2.4-7.06l-2.39-6.61q-.77-2.12-1.67-4.41l-.84-2.31a12.74,12.74,0,0,1-.6-3.52,7.09,7.09,0,0,1,.29-1.68,9.3,9.3,0,0,0-1.69-1.78,14,14,0,0,1-2-3.91q-1.36-3.77-.93-5.87.44-2.7,3.95-4a9.83,9.83,0,0,1,3.79-.47l2.1.21a6.91,6.91,0,0,0,1.67-1.8,7.21,7.21,0,0,1,3.09-1.79,9.66,9.66,0,0,1,9.69,1.36,17.78,17.78,0,0,1,5.75,8.46q2.77,7.67.5,12.75-1.56,3.55-7.71,5.78a7.57,7.57,0,0,1-2.31.24c-.21,0-.66-.11-1.36-.25a2.38,2.38,0,0,0-1.23-.3,6.06,6.06,0,0,0-.88,1.29,6.4,6.4,0,0,1-2.12,1.59A2.72,2.72,0,0,0,118.78,245.68ZM67.54,287.16q-2.38.86-3.82-3.11a26.43,26.43,0,0,1-1.65-7,14.34,14.34,0,0,1,0-2,4.31,4.31,0,0,0,0-1.71,11.47,11.47,0,0,0-1.6-2.56,11.53,11.53,0,0,1-1.65-2.69q-1.31-3.64-4.28-10.79t-4.17-10.9q-1.32-3.64-3.75-3.13a6.65,6.65,0,0,1-2.46.22,3.89,3.89,0,0,0-1.65,0,3.77,3.77,0,0,0-.49.7,3.74,3.74,0,0,1-.5.7,7.94,7.94,0,0,1-2.86,2q-3.57,1.29-4.31-.76-.91-2.51,2.27-3.66A8.3,8.3,0,0,1,41.4,242c.17.19.67.28,1.52.27.28-.05.53-.32.76-.8l.38-.81a4.67,4.67,0,0,1,2.42-1.77q2.58-.93,7.75-3T61.92,233q3.37-1.22,4.19,1t-2.38,3.55q-1.26.46-3.71,1.12t-3.64,1.09a2.5,2.5,0,0,0-1.89,2.63,45.37,45.37,0,0,0,2.23,7.42q1.27,3.73,2.66,7.56l3,8.93a12.43,12.43,0,0,1,.73,4.07,13.32,13.32,0,0,1-.08,2l1.43,1.28a11.07,11.07,0,0,1,1.62,2.41q1.82,4.43,2.49,6.28Q70,286.28,67.54,287.16Zm16.85-17.91a43.3,43.3,0,0,1-7.87-13.9,20.32,20.32,0,0,1-1.39-5.7,6.64,6.64,0,0,1,.32-1.39,2.74,2.74,0,0,0,.16-1.63,11.49,11.49,0,0,0-.63-1.34,12.69,12.69,0,0,1-.66-1.41,14.77,14.77,0,0,1-.64-6.95,17.11,17.11,0,0,1,2.14-6.68,12.76,12.76,0,0,1,6.95-5.8q8.07-2.92,15.56,4.77a41.09,41.09,0,0,1,9.07,15,53.47,53.47,0,0,1,1.9,6.71,10,10,0,0,1,.18,4.64q-.32.56-.7,1.15a2.29,2.29,0,0,0-.19,1.34q.08.42,1.06,3.13.72,2-.57,6.49a8.22,8.22,0,0,1-1.33,2.95,13.73,13.73,0,0,1-6.53,4.68Q92.56,278.41,84.39,269.26ZM210.5,380.5A169.38,169.38,0,0,1,95.11,335.33l106.67-38.58a42.35,42.35,0,0,0-.21,21.16c5.46,22.23,27.38,36,48.87,30.75S285,321,279.51,298.77a42.16,42.16,0,0,0-16.29-24.24l115.85-41.9A170,170,0,0,1,210.5,380.5Z"/><path class="cls-1" d="M122.74,239.24a24.34,24.34,0,0,0,2-1.92,8.14,8.14,0,0,1,3.57-2.11q6.28-2.27,3-11.46-3.59-9.92-10.46-7.43a7.69,7.69,0,0,1-3.68.36q-2-.17-1.94-.2a4.55,4.55,0,0,0-1.1,1.3,3.72,3.72,0,0,1-1.74,1.6,3.06,3.06,0,0,0-2,2.3,6.28,6.28,0,0,0,.2,3.44q.88,2.45.61,3.14a4.29,4.29,0,0,0-.1,2.2,11.71,11.71,0,0,0,1.31,1.55,6.47,6.47,0,0,1,1.52,1.92q1.13,3.11,1.36,3.55a2.77,2.77,0,0,0,2.78,1.69,8.5,8.5,0,0,1,2.39.41A2.94,2.94,0,0,0,122.74,239.24Z"/><path class="cls-1" d="M300.32,171.87q1.62-3-.56-9-2.7-7.47-7.34-7.89a12,12,0,0,0-3.54.76,9.73,9.73,0,0,1-3.34.68q-1.83-.31-1.57-.41a3.16,3.16,0,0,0-.91,1,2.39,2.39,0,0,1-1.28,1.21q-2,.81-2.22,1.92a11.62,11.62,0,0,0,.64,4.25,13.3,13.3,0,0,1,.43,3.88,3.09,3.09,0,0,0-.39,2.23,2.94,2.94,0,0,0,1.3,1.32,4.15,4.15,0,0,1,1.49,1.63q2.54,5.59,7.3,3.86Q299.07,174.19,300.32,171.87Z"/><path class="cls-1" d="M104.15,267a24.25,24.25,0,0,0,1.57-5.58,5.26,5.26,0,0,1,1.41-3.13q.74-.64-.43-2a9.76,9.76,0,0,1-1.66-4.18,47.57,47.57,0,0,0-1.8-6,37.71,37.71,0,0,0-8-13.34,12.94,12.94,0,0,0-4.89-3.39,8.36,8.36,0,0,0-5.83-.21,8.89,8.89,0,0,0-5.42,4.65,22.51,22.51,0,0,0-1.1,7.5q-.1.56-.59,3.13a10,10,0,0,0-.42,2.77l1.41,2A21.52,21.52,0,0,1,81,254.2,36.6,36.6,0,0,0,88.09,266q6.07,6.85,11.49,4.89A8.06,8.06,0,0,0,104.15,267Z"/></svg>