<?xml version="1.0" encoding="UTF-8" ?>
<!DOCTYPE svg PUBLIC "-//W3C//DTD SVG 1.1//EN" "http://www.w3.org/Graphics/SVG/1.1/DTD/svg11.dtd">
<svg width="24pt" height="24pt" viewBox="0 0 24 24" version="1.1" xmlns="http://www.w3.org/2000/svg">
    <g id="#ffffffff">
        <path fill="#ffffff" opacity="1.00"
              d=" M 8.76 0.00 L 10.30 0.00 C 9.44 1.66 11.96 2.06 13.05 1.70 C 13.35 1.28 13.96 0.43 14.27 0.00 L 15.36 0.00 C 16.09 1.40 16.83 2.79 17.55 4.19 C 18.74 4.77 19.93 5.34 21.13 5.91 C 19.14 6.78 17.42 8.09 16.86 10.31 C 17.76 10.43 19.57 10.67 20.47 10.79 C 20.09 11.90 19.71 13.02 19.34 14.13 C 21.83 16.87 22.43 20.42 22.01 24.00 L 2.04 24.00 C 1.54 20.31 2.28 16.66 4.74 13.78 C 4.46 13.05 3.89 11.57 3.60 10.83 C 4.90 10.63 6.20 10.43 7.50 10.22 C 6.37 8.57 5.07 7.03 3.40 5.90 C 6.20 4.99 7.48 2.42 8.76 0.00 M 7.25 7.85 C 8.07 8.78 8.91 9.69 9.77 10.58 C 10.35 10.18 11.50 9.37 12.08 8.97 C 12.63 9.38 13.72 10.20 14.27 10.62 C 15.07 9.70 15.86 8.77 16.62 7.83 C 13.50 7.96 10.38 7.94 7.25 7.85 M 8.20 13.38 C 8.56 16.36 9.19 19.30 9.84 22.22 C 10.25 20.70 10.65 19.17 11.03 17.64 L 9.97 17.58 C 11.33 17.58 12.68 17.60 14.04 17.63 L 12.97 17.67 C 13.26 18.82 13.85 21.12 14.14 22.28 C 14.76 19.33 15.37 16.39 15.79 13.41 C 15.18 14.13 13.96 15.58 13.36 16.30 C 12.45 16.33 11.54 16.32 10.64 16.30 C 9.87 15.29 9.06 14.31 8.20 13.38 Z"/>
    </g>
</svg>
