<?xml version="1.0" encoding="UTF-8" ?>
<!DOCTYPE svg PUBLIC "-//W3C//DTD SVG 1.1//EN" "http://www.w3.org/Graphics/SVG/1.1/DTD/svg11.dtd">
<svg width="24pt" height="22pt" viewBox="0 0 24 22" version="1.1" xmlns="http://www.w3.org/2000/svg">
<g id="#ffffffff">
<path fill="#ffffff" opacity="1.00" d=" M 0.00 0.00 L 5.92 0.00 C 6.24 0.91 6.54 1.82 6.80 2.75 C 12.54 2.76 18.27 2.70 24.00 2.81 L 24.00 4.04 C 23.35 7.28 22.54 10.49 21.81 13.72 C 17.33 13.80 12.85 13.64 8.37 13.89 C 11.89 16.43 16.83 14.43 20.93 15.11 C 21.45 17.40 22.84 19.78 21.35 22.00 L 18.76 22.00 C 17.98 20.74 17.67 19.32 17.66 17.86 C 15.23 17.88 12.80 17.88 10.38 17.86 C 10.22 19.28 9.85 20.65 9.39 22.00 L 6.82 22.00 C 5.39 20.52 5.76 18.74 6.64 17.06 C 5.86 12.32 4.82 7.63 3.92 2.92 C 2.60 2.87 1.30 2.74 0.00 2.52 L 0.00 0.00 Z" />
</g>
</svg>
